<svg width="305" height="244" viewBox="0 0 305 244" fill="none" xmlns="http://www.w3.org/2000/svg">
<g clip-path="url(#clip0_6_291)">
<path d="M194.298 4.36333C194.943 4.62702 195.074 3.8071 195.448 3.49808C196.293 2.80176 197.09 2.0354 197.911 1.29788L196.322 0.473831C195.879 0.951778 195.448 1.44209 194.988 1.90355C194.709 2.17961 194.417 2.25377 194.266 1.75934C193.675 1.78406 193.58 2.28261 193.383 2.68639C193.33 3.02808 193.391 3.37767 193.557 3.6809C193.723 3.98412 193.983 4.22402 194.298 4.36333Z" fill="white"/>
<path d="M194.967 1.92415C195.427 1.46269 195.858 0.972381 196.302 0.494434C195.649 -0.206005 195.128 -0.20601 194.754 0.766365C194.614 1.11658 194.413 1.44208 194.245 1.77994C194.397 2.27437 194.688 2.20021 194.967 1.92415Z" fill="white"/>
<path d="M210.037 89.7386C209.712 89.7592 209.384 89.8045 209.035 89.8498C207.966 90.0512 206.868 90.0386 205.804 89.8128C203.514 89.2277 201.17 89.446 198.695 89.6768C197.463 89.7921 196.187 89.9116 194.906 89.924C194.175 89.924 193.424 89.9528 192.697 89.9776C188.839 90.0929 184.845 90.2124 180.994 88.2965C179.883 87.8065 178.917 87.0356 178.191 86.0592C177.743 85.4247 176.959 85.1363 176.04 84.7984C175.466 84.6058 174.909 84.3675 174.373 84.0856C174.114 83.9455 173.831 83.8219 173.523 83.6736C172.758 83.3866 172.048 82.9684 171.426 82.4375L171.34 82.3551L171.286 82.2975L171.257 82.2645L171.233 82.2398L171.179 82.1697C170.161 80.876 168.786 79.9283 167.329 78.923C166.98 78.684 166.635 78.4492 166.295 78.2019C166.242 78.1591 166.183 78.1269 166.118 78.1072C162.834 78.684 159.608 79.2526 156.324 79.8088C156.398 80.2621 156.472 80.7112 156.55 81.1644L156.722 82.2274C157.113 84.294 157.061 86.4204 156.57 88.4654C156.16 90.0682 156.16 91.7616 156.16 93.521C156.174 94.7202 156.127 95.9193 156.02 97.1138C155.893 98.321 155.856 99.5241 155.815 100.797C155.786 101.621 155.761 102.445 155.708 103.269C156.677 103.043 157.658 102.824 158.606 102.614C160.15 102.272 161.742 101.918 163.29 101.522C167.805 100.356 172.382 100.616 176.799 100.867H177.029C178.47 100.95 179.902 101.164 181.273 101.374C181.889 101.465 182.505 101.56 183.121 101.642C183.297 101.663 183.467 101.724 183.617 101.819C184.343 102.31 185.007 102.888 185.592 103.541L186.043 104.003C186.08 104.039 186.114 104.078 186.146 104.118C187.948 106.413 187.632 109.034 187.377 111.123C187.369 111.223 187.345 111.322 187.308 111.415L186.811 112.721L186.774 112.812C186.704 112.96 186.639 113.117 186.573 113.269C186.398 113.698 186.188 114.111 185.945 114.505C185.284 115.608 184.722 116.767 184.266 117.97C184.061 118.457 183.855 118.959 183.634 119.454C183.905 119.536 184.172 119.594 184.245 119.532C185.982 117.999 187.447 118.708 188.531 119.483C188.531 119.454 188.531 119.425 188.531 119.392C188.593 118.679 188.593 117.958 188.593 117.192C188.593 116.841 188.593 116.495 188.593 116.149C188.596 116.009 188.621 115.87 188.666 115.737C188.733 115.476 188.862 115.235 189.043 115.035C189.223 114.836 189.45 114.684 189.703 114.593C189.956 114.502 190.227 114.474 190.493 114.513C190.759 114.551 191.011 114.655 191.228 114.814C191.372 114.839 191.51 114.888 191.638 114.958C192.96 115.771 194.415 116.341 195.936 116.64C196.187 116.684 196.418 116.805 196.597 116.986C196.702 117.111 196.834 117.209 196.983 117.274C197.103 117.298 197.219 117.338 197.328 117.394C201.355 119.478 205.681 119.429 210.94 117.237C211.035 117.138 211.119 117.029 211.19 116.912C211.431 116.515 211.753 116.173 212.134 115.91L212.216 115.857C212.438 115.683 212.693 115.556 212.966 115.485C213.239 115.414 213.523 115.401 213.801 115.445C213.148 113.442 212.705 111.296 213.542 109.264C214.229 107.658 214.538 105.914 214.445 104.168C214.425 102.807 214.629 101.453 215.049 100.159C215.771 97.497 215.697 97.2333 213.07 96.368C211.601 95.886 211.096 95.4286 211.264 93.6157C211.432 91.8028 211.531 90.0929 211.609 88.3253C211.554 88.7088 211.366 89.0606 211.079 89.3191C210.791 89.5775 210.422 89.7261 210.037 89.7386Z" fill="white"/>
<path d="M97.7875 80.1426C97.9718 80.3877 98.1 80.6706 98.1631 80.9711C98.2263 81.2716 98.2228 81.5823 98.1529 81.8813C98.1529 81.9184 98.1529 81.9555 98.1529 81.9884C97.9639 83.9922 98.3468 86.0086 99.2571 87.8021C99.299 87.8887 99.3307 87.98 99.3515 88.074C99.762 89.924 100.883 91.2425 103.025 92.3508C103.102 92.3916 103.175 92.4399 103.243 92.495C103.937 93.0636 104.167 93.1213 104.885 92.3591C106.859 90.2495 109.22 88.6138 111.506 87.0357L111.999 86.6896C113.152 85.8944 114.187 86.0551 115.077 87.1635C118.045 90.8428 121.206 94.7323 125.34 99.7755C126.337 101.012 127.368 102.248 128.357 103.422C129.235 104.477 130.11 105.527 130.98 106.586C131.333 107.019 131.821 107.109 132.848 107.167C134.867 107.278 136.858 106.978 138.964 106.66L140.397 106.45C143.028 106.084 145.7 105.626 148.282 105.194L150.799 104.782C151.358 104.717 151.908 104.591 152.44 104.407C152.556 103.857 152.612 103.296 152.609 102.734C152.67 101.267 152.736 99.7961 152.802 98.3293C152.925 95.4822 153.052 92.5362 153.163 89.6438C153.213 88.8394 153.34 88.0418 153.545 87.2623C153.808 86.393 153.901 85.4808 153.82 84.5759C153.578 83.1009 153.372 81.6094 153.175 80.1632C153.069 79.4133 152.966 78.6675 152.859 77.9218C152.798 77.5097 152.736 77.0689 152.679 76.6404C152.506 75.4043 152.33 74.1682 152.112 72.9322C152.063 72.6644 152.022 72.4707 151.989 72.3306C151.853 72.3801 151.677 72.4542 151.443 72.5572C145.31 75.2477 139.128 77.9135 134.436 79.9736C132.852 80.6576 131.267 80.6864 129.732 80.7112L128.714 80.7359C127.511 80.7771 126.764 80.089 126.53 78.6758V78.6428C126.322 77.0013 126.322 75.34 126.53 73.6985C126.571 73.2288 126.612 72.7591 126.637 72.2894C126.85 68.7378 127.105 65.1285 127.351 61.6386C127.556 58.7133 127.762 55.6849 127.959 52.706C128.295 47.3868 128.558 42.1953 128.845 36.4475C128.844 35.9286 129.004 35.422 129.301 34.9977C129.599 34.5735 130.021 34.2523 130.508 34.0784C132.876 33.0896 135.278 32.0595 137.597 31.0624L140.101 29.987L140.187 29.9376C140.406 29.789 140.654 29.6893 140.915 29.6453C141.176 29.6012 141.443 29.6138 141.698 29.6821C142.138 29.8477 142.495 30.1821 142.69 30.6117C142.885 31.0413 142.901 31.531 142.736 31.973C142.616 32.2203 142.443 32.4386 142.231 32.6129C142.018 32.7871 141.771 32.9132 141.505 32.9824L141.411 33.0154L140.179 33.5469C137.613 34.6594 134.962 35.8089 132.322 36.8843C132.248 36.9098 132.178 36.9444 132.113 36.9873C132.1 37.047 132.092 37.1076 132.088 37.1686C131.928 39.9868 131.748 42.8463 131.575 45.615C131.407 48.2726 131.234 51.0208 131.074 53.7237C130.664 60.9918 130.253 68.4411 129.818 76.5003C129.818 76.8011 129.781 77.1719 129.781 77.4479C130.019 77.4479 130.34 77.4479 130.635 77.4479H130.688C131.623 77.4217 132.542 77.1985 133.385 76.7928C136.641 75.359 139.953 73.954 143.188 72.5943C145.922 71.4365 148.75 70.2417 151.517 69.0386C152.133 68.7707 152.937 68.5112 153.713 68.8861C154.489 69.261 154.78 70.0109 154.969 70.7031C155.351 72.2287 155.608 73.7831 155.737 75.3507L155.848 76.3396C155.856 76.4271 155.871 76.5139 155.893 76.5992C155.983 76.5992 156.127 76.5745 156.34 76.5374C157.416 76.3561 158.508 76.1995 159.563 76.0471C161.36 75.7875 163.22 75.5156 164.997 75.12C167.616 74.5349 169.221 75.9853 170.514 77.1472C172.912 79.3103 175.572 81.4405 178.913 82.5035C179.309 82.6192 179.677 82.8139 179.996 83.0759C180.315 83.3378 180.577 83.6616 180.769 84.0279C181.208 84.9344 182.037 85.264 183.256 85.709C186.339 86.7926 189.771 87.114 194.056 86.7185C198.678 86.3064 203.214 85.9562 207.906 86.5124C208.316 86.5423 208.728 86.5423 209.138 86.5124C209.413 86.5124 209.688 86.5124 209.959 86.5124C210.391 86.4853 210.817 86.6307 211.143 86.917C211.469 87.2033 211.669 87.6073 211.699 88.041C211.839 84.7902 211.892 81.5352 212.028 78.2843C212.058 77.9495 212.003 77.6124 211.868 77.3047C211.733 76.997 211.522 76.7287 211.256 76.525C209.552 75.0706 209.503 73.0063 210.878 71.2223C212.701 68.8655 214.963 66.8507 216.075 63.9336C216.773 62.1001 217.011 60.1842 217.569 58.3342C217.803 57.5514 217.475 57.2382 216.904 56.6119C215.049 54.6577 213.441 52.4808 212.118 50.1308C211.342 48.6764 211.486 46.7481 211.35 45.0011C211.133 42.2159 211.847 39.9909 214.039 38.2357C215.09 37.4117 215.332 36.2745 214.979 34.9601C214.519 33.2296 213.883 31.495 213.793 29.7357C213.624 26.5466 212.927 26.8144 216.666 26.1758C217.159 26.0934 217.898 26.1758 217.939 25.5289C217.992 24.606 218.608 24.5566 219.203 24.4536C221.255 24.1116 223.308 23.8932 225.291 23.2504C225.988 23.0238 226.768 22.9208 226.994 22.0968C227.22 21.2727 226.731 20.5847 226.173 20.0367C224.864 18.8006 223.489 17.6675 222.195 16.4356C221.337 15.6354 220.232 15.1529 219.063 15.0677C217.762 14.9358 216.49 14.6186 215.201 14.495C213.559 14.3343 212.947 13.4113 212.795 11.9404C212.61 10.2017 212.385 8.46707 212.233 6.72833C212.151 5.85073 211.847 5.28625 210.891 5.13792C206.375 4.44572 202.012 3.3415 197.915 1.28963C197.094 2.02715 196.318 2.79351 195.452 3.48983C195.078 3.79885 194.947 4.61877 194.302 4.35508C193.989 4.22046 193.727 3.98654 193.558 3.68898C193.39 3.39142 193.322 3.04656 193.367 2.70699C192.505 4.06666 192.853 5.62823 192.677 7.09915C192.603 7.70071 192.624 8.39703 191.811 8.33522C189.323 8.13333 188.712 10.4736 187.538 11.7756C186.766 12.6367 186.121 13.4608 185.054 13.8975C178.467 16.5537 171.89 19.214 165.322 21.8784C160.122 23.9742 154.923 26.0591 149.723 28.1329C147.613 28.957 145.462 29.7069 143.348 30.535C142.773 30.7616 142.556 30.6298 142.527 30.0571C142.285 26.9793 141.837 23.9014 142.359 20.8113C142.492 20.147 142.672 19.493 142.897 18.8542C143.245 17.7417 142.897 17.0701 141.796 16.5963C140.429 16.0153 139.03 15.422 137.975 14.2931C137.797 14.0911 137.556 13.9555 137.291 13.9083C137.027 13.8612 136.754 13.9053 136.517 14.0335C135.696 14.3672 134.962 14.6309 134.715 13.3537C134.613 12.8098 134.112 12.9416 133.767 13.1229C133.289 13.365 132.751 13.4583 132.22 13.3907C131.399 13.3289 131.078 13.6833 131.078 14.4826C131.078 16.7405 130.101 18.6894 129.133 20.6629C127.992 22.9744 127.08 25.3765 127.4 28.0382C127.444 28.376 127.393 28.7195 127.251 29.0293C127.11 29.339 126.884 29.6024 126.6 29.7893C125.213 30.9127 124.1 32.3406 123.349 33.963C123.086 34.4945 122.778 35.092 122.261 35.2898C119.691 36.2704 117.081 37.1933 114.269 36.6989C112.528 36.3899 111.576 36.6371 110.718 38.0792C110.573 38.3849 110.337 38.6383 110.044 38.805C109.75 38.9716 109.412 39.0433 109.076 39.0103C108.354 38.9815 107.627 39.0103 106.9 39.0103C106.345 38.9886 105.793 39.1038 105.292 39.3458C104.791 39.5879 104.357 39.9494 104.027 40.3988C103.007 41.6989 101.7 42.7439 100.209 43.4519C99.3146 43.8639 99.0313 44.4078 98.8958 45.3019C98.4854 48.0089 98.7234 50.7365 98.4854 53.4435C98.3376 55.0504 97.8204 56.4925 96.2851 57.2918C95.1111 57.9016 94.9387 58.9069 95.2384 60.0029C95.6078 61.3667 96.1291 62.6563 97.5987 63.2991C98.8302 63.8265 99.6922 64.8112 100.595 65.7712C101.498 66.7312 101.416 67.58 100.883 68.6554C99.5075 71.4407 98.3868 74.3248 98.157 77.4727C98.1716 78.1572 97.9432 78.8246 97.5125 79.3556C97.3852 79.488 97.2367 79.598 97.0733 79.6811C97.3498 79.7646 97.5973 79.9246 97.7875 80.1426Z" fill="white"/>
<path d="M30.709 120.208C30.6475 120.303 30.5729 120.389 30.4873 120.463C30.0481 120.838 29.2353 121.543 29.1778 121.782C29.1204 122.021 29.5883 122.985 29.7689 123.356C30.5489 125.004 31.374 126.652 32.1744 128.271C32.7163 129.367 33.2581 130.459 33.7918 131.567C33.8915 131.824 34.0532 132.053 34.2623 132.232C34.4715 132.411 34.7217 132.535 34.9904 132.593C36.2219 132.886 37.6299 133.388 38.5781 134.678C39.2718 131.996 39.7521 129.219 40.2201 126.524C40.3022 126.038 40.3884 125.556 40.4705 125.074C40.5114 124.657 40.637 124.252 40.8396 123.886C41.0423 123.52 41.3176 123.199 41.6486 122.944C42.0012 122.741 42.3915 122.613 42.7954 122.567C43.1992 122.522 43.6081 122.56 43.9966 122.68H44.0705C44.3985 122.73 44.7214 122.81 45.0352 122.919C45.1938 122.975 45.3556 123.021 45.5195 123.059C45.5396 123.022 45.5574 122.983 45.5729 122.944C45.7185 122.612 45.8901 122.292 46.086 121.988C46.4678 121.37 46.5499 121.164 46.4555 120.888C46.2814 120.338 46.2978 119.746 46.502 119.207C46.7063 118.668 47.0863 118.215 47.5802 117.921C48.9595 117.064 50.0021 118.152 50.3469 118.51L50.4496 118.617C50.9134 119.083 51.4019 119.553 51.8699 120.002C53.0085 121.059 54.0884 122.179 55.1045 123.356C56.3396 124.902 57.2992 126.652 57.941 128.526C58 128.689 58.048 128.856 58.0847 129.025C59.9525 129.923 60.7283 131.555 61.3687 132.886C61.8653 133.936 63.0106 134.558 64.4227 134.558H64.513C64.8795 134.539 65.2461 134.594 65.591 134.72C65.9359 134.846 66.2519 135.041 66.5203 135.292C66.7663 135.58 66.9487 135.916 67.0556 136.28C67.1624 136.644 67.1913 137.026 67.1402 137.401C67.0499 138.946 67.3208 139.874 68.0761 140.557C68.159 140.653 68.2634 140.727 68.3804 140.773C68.4975 140.82 68.624 140.838 68.7493 140.825C70.9751 140.811 73.1647 140.259 75.1325 139.214C75.8756 138.759 76.7662 138.611 77.6159 138.802C79.8203 139.321 80.0132 141.122 80.1281 142.201V142.28C80.1634 142.741 80.2264 143.199 80.317 143.652C80.7553 143.736 81.1979 143.797 81.6429 143.833C82.2052 143.891 82.7799 143.953 83.1247 143.957C83.1535 143.619 83.1494 143.05 83.1453 142.502C83.1453 139.865 84.4876 138.464 87.1763 138.337H87.3528C86.0926 137.513 85.9161 136.075 85.834 135.382C85.797 135.065 85.7765 134.756 85.7601 134.455C85.7518 133.971 85.6857 133.49 85.5631 133.022C85.5302 132.919 85.4646 132.713 85.4071 132.585C85.1393 132.627 84.8657 132.612 84.604 132.541C84.3424 132.47 84.0985 132.345 83.8883 132.173C83.6548 131.936 83.4734 131.653 83.356 131.341C83.2387 131.03 83.1878 130.697 83.2068 130.364C83.1617 128.802 82.4433 127.83 80.8711 127.208C80.2973 127.003 79.8138 126.601 79.5053 126.074C79.1968 125.546 79.0831 124.927 79.184 124.324C79.3492 122.515 78.9612 120.698 78.0716 119.116C77.9672 118.926 77.9145 118.711 77.9189 118.494C77.9232 118.278 77.9844 118.065 78.0962 117.88C78.253 117.631 78.4361 117.401 78.6422 117.192C78.7218 117.11 78.7958 117.024 78.8638 116.932C78.8914 116.743 78.9624 116.562 79.0714 116.405C79.1804 116.247 79.3244 116.118 79.4919 116.026C79.7112 115.832 79.8839 115.591 79.9968 115.321C80.3214 114.607 80.8576 114.012 81.532 113.615C81.7003 113.516 81.8727 113.426 82.041 113.331C82.9195 112.853 83.4285 112.552 83.6132 111.938C83.6601 111.781 83.7376 111.635 83.8412 111.509C83.9448 111.382 84.0724 111.278 84.2167 111.201C84.2816 111.093 84.3352 110.978 84.3767 110.859C84.4245 110.729 84.4954 110.609 84.5861 110.505C84.9227 110.093 84.9432 109.961 84.935 109.854C84.9189 109.64 84.9585 109.425 85.05 109.231L85.8258 107.554C85.9323 107.33 86.1022 107.143 86.3143 107.015C88.4365 105.75 89.824 104.773 89.7419 102.783C89.7002 101.45 89.8933 100.119 90.3125 98.8526C90.3202 98.8218 90.3298 98.7915 90.3412 98.7619C90.4378 98.4445 90.6069 98.1541 90.8349 97.9138C91.0629 97.6735 91.3437 97.4899 91.6548 97.3775C92.0021 97.2919 92.3641 97.2844 92.7146 97.3557C93.0652 97.4269 93.3958 97.575 93.6826 97.7895L94.0931 97.9832C94.5036 98.1603 94.9141 98.3458 95.2958 98.5476C95.396 98.6042 95.5039 98.6458 95.616 98.6713C95.6625 98.5958 95.701 98.5157 95.731 98.4323C95.8154 98.2166 95.9574 98.0284 96.1415 97.8884C96.6796 97.486 97.089 96.9347 97.3196 96.3021C97.3746 96.1706 97.4106 96.0319 97.4263 95.8901C97.3592 95.8573 97.2891 95.8311 97.2169 95.8118C96.9576 95.7375 96.7297 95.5797 96.5684 95.3627C96.3452 95.2641 96.1502 95.1111 96.0011 94.9175C95.852 94.7239 95.7535 94.4959 95.7145 94.2544C95.6846 93.9673 95.732 93.6774 95.8519 93.415C95.9718 93.1526 96.1597 92.9274 96.396 92.7629C96.5164 92.6567 96.6556 92.5742 96.8065 92.5198L97.6274 92.2107C97.2105 91.546 96.8742 90.8337 96.6258 90.0888C96.5766 89.9446 96.5232 89.8045 96.4658 89.6768C96.3426 89.3513 96.2112 89.0258 96.0799 88.7003C95.2096 86.5372 94.3066 84.2958 94.7909 81.6382C94.793 81.5998 94.793 81.5613 94.7909 81.5229C94.7607 81.2578 94.786 80.9893 94.8652 80.7345C94.9444 80.4798 95.0757 80.2445 95.2507 80.0437C95.3576 79.9323 95.4808 79.8378 95.616 79.7635C95.4793 79.7242 95.3536 79.6535 95.2489 79.557C95.1441 79.4604 95.0632 79.3407 95.0126 79.2073C94.6801 78.2267 94.0644 78.0289 93.1777 77.9053C92.6235 77.8311 91.6753 77.5839 92.1925 76.7352C93.034 75.3549 91.8888 75.1777 91.1827 74.7451C90.255 74.1847 89.709 74.6627 89.2123 75.4908C88.6138 76.4298 88.1586 77.4533 87.8618 78.5275C87.6894 79.2032 87.673 80.0561 86.9834 80.4557C85.7724 81.1479 84.6928 82.0503 83.3464 82.5158C82.4351 82.8372 81.6798 82.9279 81.0928 81.9885C80.3293 80.7524 79.1142 80.4928 77.7555 80.3404C73.5315 79.8913 69.3035 79.4421 65.1123 78.7623C63.692 78.5316 63.3677 79.4174 62.7233 80.1261C62.4441 80.4058 62.2802 80.7808 62.2642 81.1763C62.2483 81.5719 62.3814 81.9589 62.6371 82.2604C63.2873 83.2311 63.603 84.3888 63.5361 85.5566C63.4909 88.6962 63.5361 91.8399 62.5221 94.893C62.1667 96.0528 61.4868 97.0856 60.5633 97.8687C59.6398 98.6517 58.5116 99.152 57.313 99.3099C56.0158 99.45 54.7269 99.6807 53.4297 99.8043C53.1411 99.8063 52.8618 99.907 52.6379 100.09C52.4141 100.273 52.259 100.526 52.1983 100.81C51.6112 102.721 50.5563 104.538 51.7057 106.652C52.1161 107.398 51.8575 108.362 50.6835 108.086C49.1565 107.723 48.3068 108.3 47.7526 109.652C47.6331 109.974 47.4146 110.249 47.1287 110.439C45.614 111.221 45.2938 112.387 45.852 113.928C46.2174 114.934 45.7125 115.309 44.756 115.453C43.2208 115.684 41.7184 116.075 40.6839 117.373C39.945 118.296 39.0666 118.304 38.0814 117.913C36.5174 117.703 35.208 118.737 33.7179 118.84L32.6465 119.182C32.1075 119.464 31.4857 119.543 30.8937 119.404C30.9233 119.685 30.8582 119.968 30.709 120.208Z" fill="#52C3FF"/>
<path d="M214.49 118.477L214.417 118.551C213.005 120.195 211.051 121.273 208.912 121.588C205.903 122.049 202.66 122.412 199.327 121.839C198.45 121.662 197.602 121.364 196.806 120.953C196.335 120.718 195.847 120.52 195.345 120.36C195.25 120.335 195.159 120.298 195.074 120.249C193.992 119.677 192.857 119.214 191.684 118.869C191.684 119.05 191.684 119.231 191.684 119.408C191.663 120.838 191.055 121.988 190.021 122.564C189.513 122.83 188.944 122.953 188.372 122.923C187.8 122.893 187.247 122.709 186.77 122.391C186.638 122.281 186.472 122.218 186.3 122.213C186.128 122.209 185.959 122.263 185.822 122.367C183.888 123.286 181.947 122.449 181.306 122.173C181.029 122.067 180.777 121.905 180.565 121.696C180.353 121.488 180.186 121.238 180.075 120.962C179.705 120.01 180.14 119.038 180.374 118.518C181.195 116.662 182.026 114.803 182.866 112.944L183.802 110.851C183.86 110.673 183.921 110.5 183.987 110.323C184.104 110.038 184.189 109.741 184.241 109.437V109.285C184.373 107.814 184.352 107.262 183.617 106.838C183.471 106.753 183.343 106.639 183.242 106.503C183.141 106.367 183.069 106.212 183.03 106.046C182.829 105.165 182.255 104.967 180.789 104.662L180.547 104.613C176.906 103.842 173.261 103.925 169.398 104.011H168.86L169.098 104.147C169.385 104.303 169.659 104.481 169.919 104.679C170.058 104.786 170.173 104.921 170.256 105.076C170.339 105.231 170.387 105.402 170.399 105.578C170.411 105.753 170.385 105.929 170.323 106.094C170.262 106.258 170.166 106.408 170.042 106.533C167.579 109.005 167.711 111.374 170.482 114.39C170.66 114.583 170.772 114.829 170.801 115.09C170.831 115.352 170.776 115.616 170.646 115.844C170.624 115.886 170.599 115.926 170.572 115.964C170.467 116.121 170.328 116.251 170.165 116.345C170.002 116.44 169.82 116.495 169.632 116.508L170.116 116.714L170.67 116.953C172.374 117.653 172.214 119.363 172.16 119.928C172.041 121.209 171.208 121.856 169.698 121.856H168.035L168.105 121.946C168.218 122.092 168.297 122.261 168.339 122.441C168.46 122.866 168.637 123.273 168.864 123.652C169.246 124.291 169.523 124.986 169.685 125.712C169.981 127.294 170.071 129.569 167.464 131.069C166.596 131.647 165.832 132.369 165.203 133.203C164.932 133.52 164.648 133.85 164.353 134.167C164.226 134.417 164.142 134.688 164.107 134.966C164.009 135.592 163.796 136.195 163.479 136.742C163.063 137.487 162.432 138.087 161.669 138.465C160.906 138.842 160.047 138.978 159.205 138.856C157.867 138.766 156.542 138.534 155.252 138.164C154.998 138.784 154.741 139.404 154.481 140.022C153.935 141.328 153.368 142.675 152.863 144.01C152.805 144.15 152.76 144.295 152.728 144.443C152.849 144.494 152.976 144.531 153.105 144.554C155.917 145.16 158.709 145.967 161.41 146.754C162.961 147.208 164.57 147.673 166.151 148.093C167.046 148.328 167.912 148.633 168.749 148.917C170.113 149.469 171.54 149.846 172.998 150.038C173.905 150.116 174.808 150.203 175.715 150.289C177.838 150.491 180.03 150.702 182.177 150.788C183.65 150.846 185.538 151.134 187.045 152.869C187.123 152.961 187.209 153.048 187.299 153.128H187.32C187.493 152.935 187.707 152.783 187.947 152.684C188.186 152.585 188.445 152.541 188.703 152.556C188.991 152.593 189.267 152.692 189.512 152.847C189.757 153.003 189.966 153.21 190.124 153.454C190.567 154.047 191.257 154.175 192.344 154.34C193.891 154.546 195.385 155.047 196.745 155.815C196.864 155.885 196.954 155.934 197.024 155.967C196.959 155.796 196.913 155.617 196.889 155.436C196.889 155.436 196.86 155.337 196.843 155.279C196.827 155.221 196.798 155.131 196.778 155.057C196.708 154.806 196.719 154.539 196.809 154.295C196.899 154.051 197.063 153.842 197.279 153.697L197.574 153.499C197.808 153.34 198.09 153.267 198.372 153.291C198.654 153.316 198.919 153.437 199.122 153.635C199.692 154.175 200.404 154.539 201.174 154.686C202.172 154.946 203.11 155.398 203.937 156.017C204.505 156.45 205.146 156.779 205.829 156.989C206.357 157.122 206.874 157.3 207.373 157.521L207.516 157.582C207.791 157.17 208.485 156.598 210.492 155.914C211.638 155.522 213.173 155.09 213.986 155.324C214.476 155.442 214.905 155.739 215.188 156.157C215.472 156.576 215.589 157.086 215.517 157.586C215.494 157.725 215.508 157.867 215.558 157.998C215.747 158.088 215.956 158.128 216.165 158.114C219.383 158.234 222.604 158.079 225.795 157.648L225.984 157.615C226.419 157.533 227.302 157.368 227.93 157.974C228.012 157.689 228.09 157.393 228.168 157.084C228.289 156.446 228.611 155.863 229.087 155.423C229.563 154.983 230.168 154.709 230.812 154.64C231.292 154.562 231.78 154.439 232.294 154.303C232.879 154.135 233.472 153.997 234.071 153.891C234.132 153.881 234.192 153.868 234.252 153.849C234.255 153.793 234.255 153.737 234.252 153.68C234.182 153.34 234.185 152.988 234.26 152.649C234.335 152.31 234.48 151.99 234.687 151.711C234.937 151.44 235.239 151.223 235.575 151.071C235.91 150.92 236.273 150.838 236.641 150.829H236.776C238.701 150.669 240.696 150.508 242.695 150.533C244.005 150.533 244.637 151.126 244.937 151.732C245.518 151.052 246.251 150.52 247.075 150.178C247.358 150.049 247.632 149.901 247.896 149.737C248.455 149.358 248.508 149.177 248.496 148.814C248.496 148.325 248.541 147.837 248.631 147.356C248.681 147.083 248.716 146.808 248.738 146.532V146.182C248.738 145.419 248.791 144.381 249.583 143.668C250.064 143.258 250.677 143.04 251.308 143.054C251.309 143.039 251.309 143.024 251.308 143.009C251.383 142.685 251.528 142.382 251.732 142.12C251.936 141.858 252.195 141.644 252.49 141.493C252.819 141.362 253.172 141.303 253.526 141.318C253.879 141.334 254.226 141.424 254.542 141.583L254.641 141.616C254.965 141.715 255.263 141.884 255.515 142.111C255.711 141.535 255.953 140.975 256.238 140.438C257.017 139 256.488 138.193 255.179 137.612C252.604 136.141 250.22 134.357 248.081 132.301C247.26 131.477 246.394 130.673 245.261 130.294C242.713 129.415 240.507 127.749 238.96 125.535C238.837 125.357 238.68 125.205 238.498 125.087C238.317 124.97 238.114 124.89 237.901 124.851C234.608 124.143 231.371 123.199 228.213 122.025C227.31 121.699 225.816 121.584 225.623 121.019C225.069 119.392 223.899 119.87 222.852 119.66C221.888 119.462 220.541 119.833 220.389 118.152C220.344 117.74 219.732 117.464 219.228 117.406C218.695 117.402 218.164 117.358 217.639 117.274C216.867 117.064 215.919 117.138 215.151 116.899C215.175 117.196 215.128 117.494 215.013 117.769C214.898 118.044 214.719 118.287 214.49 118.477ZM157.35 142.453V142.395C157.348 142.42 157.348 142.445 157.35 142.469H157.325L157.35 142.453Z" fill="white"/>
<path d="M215.997 205.641C218.23 205.542 219.449 204.817 220.081 203.272C220.714 201.726 221.929 200.853 223.037 200.132C224.355 199.271 224.679 198.167 224.268 196.057C224.097 195.321 223.882 194.596 223.624 193.886V193.844C223.591 193.754 223.562 193.667 223.534 193.581C223.32 192.922 223.287 192.823 222.713 192.6C220.66 191.826 219.076 189.761 218.575 187.211C218.522 186.84 218.554 186.461 218.669 186.104C218.783 185.747 218.977 185.421 219.236 185.151C219.778 184.512 220.788 183.783 221.871 183.824C222.45 183.824 223.049 183.861 223.361 183.824C223.415 183.527 223.452 182.967 223.489 182.423V182.176C223.596 180.884 223.77 179.598 224.01 178.324C224.112 177.722 224.219 177.087 224.305 176.49C224.305 176.424 224.305 176.354 224.338 176.284C223.95 176.237 223.59 176.058 223.316 175.777C223.12 175.546 222.973 175.277 222.884 174.986C222.796 174.696 222.768 174.39 222.803 174.088C222.803 174.043 222.803 174.001 222.803 173.96C222.81 173.411 222.689 172.867 222.449 172.373C222.208 171.88 221.856 171.449 221.42 171.117C220.337 170.215 219.552 169.006 219.166 167.648L219.137 167.549C218.891 166.704 218.612 165.749 219.113 164.834C219.451 164.263 219.992 163.842 220.627 163.656C220.703 162.91 220.67 162.158 220.529 161.422C219.146 161.472 217.779 161.447 216.457 161.398C214.224 161.311 213.312 160.8 212.5 158.926C212.241 159 211.987 159.061 211.748 159.119C210.825 159.342 210.328 159.486 210.012 160.042C209.749 160.508 208.916 161.521 206.905 160.796L205.985 160.471C204.376 159.914 202.701 159.338 201.195 158.213C200.374 157.607 200.374 157.636 200.004 158.085C198.847 159.56 196.942 159.869 195.263 158.855L194.951 158.67C193.699 157.904 192.94 157.488 191.913 157.879C190.657 158.361 189.742 157.467 189.249 156.993C189.159 156.902 189.069 156.816 188.978 156.742L188.79 156.577C188.68 156.476 188.564 156.384 188.441 156.301C188.384 156.315 188.329 156.334 188.276 156.359C187.414 156.738 186.052 156.812 184.467 154.995C183.856 154.294 183.088 154.121 181.803 154.031L180.186 153.924C176.549 153.751 172.926 153.372 169.332 152.786C168.481 152.602 167.662 152.286 166.906 151.851C166.462 151.603 165.994 151.399 165.511 151.241C164.591 150.986 163.635 150.751 162.711 150.524C161.98 150.347 161.229 150.162 160.486 149.964C158.907 149.544 157.328 149.118 155.749 148.687L155.285 148.559C155.717 149.165 155.976 149.877 156.036 150.619C156.2 151.932 156.189 153.261 156.004 154.57C155.848 155.724 155.47 157.158 153.951 158.056C156.792 159.667 156.825 162.588 156.87 164.339C156.901 164.677 156.858 165.018 156.745 165.337C156.631 165.657 156.45 165.948 156.213 166.189C155.958 166.388 155.664 166.527 155.349 166.598C155.035 166.67 154.709 166.671 154.394 166.601H154.218C154.218 166.676 154.218 166.775 154.218 166.911C154.432 169.036 154.041 171.18 153.089 173.091C152.326 174.648 152.046 176.428 152.219 178.686C152.334 180.194 151.57 181.158 150.072 181.344C149.395 181.434 148.726 181.558 148.02 181.69C146.41 182.052 144.764 182.225 143.114 182.205C141.723 182.139 139.687 181.871 138.057 180.293C137.921 180.161 137.757 180.046 137.207 180.05C135.889 180.05 134.572 180.075 133.254 180.091C129.395 180.141 125.405 180.19 121.473 180.042C120.488 180.005 119.503 179.918 118.526 179.803C118.969 180.157 119.388 180.524 119.794 180.882C120.073 181.129 120.356 181.377 120.64 181.616C121.194 182.1 121.718 182.619 122.208 183.169C122.761 183.822 123.391 184.406 124.084 184.908C126.485 186.461 126.169 188.657 125.939 190.264L125.894 190.602C125.84 190.926 125.745 191.242 125.611 191.541L125.545 191.706C124.884 193.42 125.044 194.59 126.095 195.797C126.699 196.481 127.286 197.227 127.216 198.113C127.159 198.621 126.918 199.09 126.538 199.431C126.719 199.485 126.9 199.53 127.072 199.588C130.324 200.692 133.419 202.216 136.279 204.12C137.039 204.623 137.712 205.192 138.742 205.225C143.43 205.369 148.118 205.583 152.802 205.777C159.324 206.053 165.847 206.349 172.37 206.601C178.408 206.836 184.447 207.013 190.485 207.239C192.024 207.73 193.592 207.441 195.148 207.4L196.314 206.316C196.786 205.876 197.205 205.08 197.976 205.674C198.748 206.267 198.186 206.91 197.919 207.507C198.709 207.653 199.483 207.876 200.23 208.17C201.084 208.533 201.872 208.488 201.691 207.173C201.845 206.784 201.845 206.351 201.691 205.962C201.761 204.491 202.984 204.545 203.941 204.248C204.762 204.425 205.665 204.108 206.486 204.594C207.795 205.348 209.34 205.573 210.808 205.225C211.675 205.051 212.652 204.928 213.292 205.599C213.748 206.066 214.312 206.411 214.934 206.605C214.989 206.353 215.121 206.124 215.311 205.952C215.502 205.779 215.742 205.67 215.997 205.641Z" fill="white"/>
<path d="M254.037 144.834C253.721 145.432 253.188 146.367 252.051 146.61C252.014 146.861 251.969 147.117 251.923 147.368C251.789 148.048 251.702 148.736 251.665 149.428C251.628 151.076 250.844 152.172 249.276 152.799C248.451 153.049 247.731 153.563 247.223 154.261C246.32 155.605 244.826 155.497 243.939 155.403C243.682 155.372 243.422 155.362 243.163 155.374C242.889 155.39 242.615 155.38 242.342 155.345L241.957 155.316C241.737 155.303 241.524 155.23 241.341 155.106C241.159 154.983 241.012 154.812 240.918 154.612C240.799 154.354 240.768 154.064 240.832 153.788C239.712 153.816 238.595 153.924 237.49 154.109C237.334 155.897 236.259 156.993 234.547 157.096C231.85 157.277 230.615 158.369 230.418 160.738C230.322 161.378 230.036 161.975 229.597 162.448C228.948 163.248 228.127 163.614 227.306 163.449C226.91 163.357 226.547 163.156 226.257 162.87C225.968 162.583 225.762 162.222 225.664 161.826C225.356 160.854 225.106 160.895 224.051 161.072L223.866 161.101C223.896 161.225 223.916 161.352 223.924 161.48C223.924 161.678 223.957 161.892 223.977 162.073C224.113 163.433 224.314 165.448 222.2 166.606V166.626C222.384 167.285 222.761 167.872 223.283 168.311C224.383 169.276 225.837 170.825 225.931 173.227C226.695 173.441 227.983 174.117 227.68 176.272C227.63 176.618 227.589 176.964 227.548 177.314C227.433 178.668 227.182 180.007 226.801 181.311C226.515 182.261 226.439 183.262 226.58 184.244C226.656 184.648 226.644 185.063 226.543 185.461C226.443 185.859 226.256 186.23 225.997 186.548C225.303 187.318 224.277 187.372 223.567 187.372H223.435C223.185 187.372 222.936 187.355 222.688 187.322H222.585C222.35 187.276 222.111 187.255 221.871 187.26C221.933 187.351 222.023 187.462 222.089 187.545L222.335 187.87L222.536 188.163C223.255 189.197 223.62 189.621 224.33 189.658C224.751 189.685 225.153 189.842 225.482 190.107C225.811 190.371 226.051 190.731 226.169 191.137C226.3 191.549 226.444 191.962 226.58 192.336C227.146 193.956 227.725 195.633 227.786 197.454C227.897 197.454 228.008 197.454 228.127 197.454H228.275H228.841C229.801 197.446 230.76 197.49 231.715 197.586C232.429 197.668 232.536 197.528 232.7 196.935C232.741 196.77 232.778 196.593 232.815 196.411C232.979 195.616 233.184 194.623 233.94 194.009C235.077 193.082 236.23 193.91 236.665 194.219C236.784 194.312 236.911 194.395 237.043 194.467L237.778 194.574C239.498 194.833 241.119 195.081 242.737 194.549C244.489 193.968 246.234 194.178 247.921 194.384L248.742 194.475C249.735 194.582 250.384 195.01 250.721 195.748C251.267 197.009 252.317 197.33 254.136 197.808L254.271 197.845C254.932 198.01 255.597 198.146 256.303 198.29C258.508 198.739 260.786 199.205 262.871 200.692C263.551 201.084 264.29 201.363 265.059 201.516L265.47 201.619C265.434 201.193 265.293 200.782 265.059 200.424C263.581 199.328 263.072 198.513 262.908 196.947C262.886 196.732 262.92 196.515 263.007 196.318C263.094 196.121 263.231 195.95 263.405 195.822C262.12 195.847 260.835 195.851 259.546 195.822C258.483 195.822 258.109 195.41 258.064 194.372C257.986 192.53 257.654 190.688 257.695 188.851C257.693 185.89 258.167 182.949 259.099 180.141C259.92 177.763 261.504 175.691 261.767 173.103C261.808 172.691 262.251 172.535 262.555 172.3C263.893 171.27 265.613 170.887 266.882 169.737C266.795 169.494 266.713 169.251 266.631 169.004C266.796 167.965 267.116 166.923 267.103 165.889C267.046 161.431 267.391 156.968 266.927 152.514C266.898 152.255 266.57 151.629 267.366 151.851C267.448 151.579 267.534 151.307 267.616 151.027C267.12 150.203 267.67 149.618 268.076 149.037C268.663 148.213 268.392 147.57 267.641 147.105C266.82 146.598 265.958 146.178 265.117 145.716L265.502 145.358C264.328 144.88 263.142 145.172 261.964 145.325C260.786 145.477 260.072 145.967 260.17 147.286C260.24 148.242 259.649 148.522 258.799 148.522C256.816 148.563 255.154 146.746 255.035 144.678C254.723 144.822 254.378 144.876 254.037 144.834Z" fill="white"/>
<path d="M64.9276 179.951C64.9276 179.922 64.9276 179.893 64.9276 179.869C64.9482 179.535 64.9769 179.205 65.0056 178.876C65.0631 178.142 65.1206 177.45 65.1165 176.762C65.1165 176.169 65.1165 175.064 65.8964 174.364C66.2947 174.025 66.7987 173.837 67.3208 173.832C67.5917 171.855 68.3717 170.124 69.2173 168.373C69.3856 168.023 69.833 167.104 68.3552 166.338C65.293 164.739 64.8537 163.73 65.7527 160.331C66.0604 158.902 66.594 157.532 67.3331 156.272L66.5121 155.819C65.3217 155.168 64.0902 154.5 62.8629 153.886C62.2425 153.589 61.6995 153.151 61.2764 152.606C60.8533 152.062 60.5617 151.427 60.4245 150.751C60.3958 150.631 60.3712 150.512 60.3465 150.388C60.3141 150.155 60.252 149.926 60.1618 149.709C59.0535 148.238 58.29 145.926 60.9253 143.281C61.5938 142.567 62.2047 141.801 62.752 140.99C63.105 140.496 63.4704 139.985 63.8686 139.49C64.0738 139.235 64.0533 139.012 63.8686 138.254C63.8275 138.089 63.7865 137.912 63.7536 137.727C63.528 137.731 63.3026 137.713 63.0804 137.673C60.285 137.129 58.4213 135.44 57.6948 132.783C57.6619 132.676 57.6373 132.581 57.2843 132.449C56.699 132.241 56.174 131.891 55.7558 131.43C55.3376 130.969 55.0392 130.412 54.887 129.808C53.9757 126.788 51.8781 124.575 49.5506 122.367C49.4914 122.565 49.413 122.757 49.3166 122.939L49.1811 123.203C47.6254 126.219 47.063 126.499 43.6805 125.922H43.6518C43.6231 126.038 43.5984 126.174 43.582 126.264C42.9293 129.742 42.2479 133.269 41.5829 136.684C41.5829 136.755 41.5583 136.882 41.5501 137.006C41.5049 137.537 41.39 138.951 40.0313 139.198C39.4015 139.314 38.7517 139.243 38.1617 138.993C37.5716 138.744 37.0672 138.326 36.7104 137.793C36.3469 137.187 35.8591 136.666 35.2794 136.264C34.6998 135.862 34.0416 135.588 33.3484 135.461C32.939 135.343 32.5585 135.14 32.2312 134.867C31.904 134.593 31.6372 134.253 31.4479 133.87L31.3617 133.734C30.0653 131.598 28.916 129.374 27.9217 127.08C27.5769 126.326 27.2157 125.548 26.8545 124.794C26.7518 124.583 26.6779 124.381 26.5999 124.175C26.5342 123.963 26.4447 123.758 26.3331 123.566H26.1895H26.0129C25.7247 123.565 25.4458 123.463 25.2248 123.277C24.8962 123.95 24.6931 124.678 24.6255 125.424C24.5146 126.248 24.0754 126.615 23.4351 126.611C22.3185 126.611 21.4934 127.146 20.7053 127.777C20.0156 128.329 19.3178 128.601 18.4394 128.341C18.3024 128.285 18.1554 128.258 18.0076 128.262C17.8597 128.265 17.7142 128.3 17.5802 128.362C17.4461 128.425 17.3264 128.515 17.2284 128.626C17.1304 128.737 17.0564 128.867 17.0108 129.009C16.6825 129.89 15.8779 130.113 15.2211 130.578C12.7581 132.325 9.3839 132.144 7.1385 134.493C6.68696 134.962 5.8824 135.279 5.8824 135.972C5.8824 138.221 5.44728 140.166 3.23062 141.262C3.1899 141.29 3.15589 141.327 3.13104 141.369C3.10619 141.412 3.09113 141.46 3.08694 141.509C2.88991 143.129 1.58454 143.903 0.541891 144.88C0.270966 145.131 -0.164156 145.353 0.131399 145.827C0.64041 146.651 1.05911 147.723 1.9663 147.999C3.33735 148.411 3.55901 150.351 5.20509 150.252C5.27076 150.252 5.3816 150.479 5.41033 150.615C5.65481 151.59 6.07194 152.512 6.64181 153.338C7.10567 154.035 6.64181 154.925 6.02196 155.547C5.74693 155.819 5.41443 156.037 5.16403 156.326C4.60166 156.96 4.63039 157.463 5.57453 157.644C5.94736 157.753 6.33651 157.795 6.72391 157.768C8.89541 157.356 10.6359 158.204 12.0603 159.717C13.5832 161.336 15.5618 161.678 17.5814 161.97C18.797 162.085 19.9377 162.611 20.8161 163.462C21.9039 164.62 23.2175 165.003 24.683 165.188C25.3084 165.254 25.9284 165.364 26.5384 165.518C27.1729 165.69 27.752 166.025 28.219 166.489C28.686 166.954 29.0249 167.532 29.2025 168.167C29.5144 169.296 28.3281 169.959 27.425 170.536C26.1774 171.286 25.1061 172.298 24.2848 173.503C23.8497 174.166 23.2421 174.739 23.5582 175.563C23.8743 176.387 24.6788 176.548 25.4916 176.577C25.8652 176.577 26.3126 176.507 26.4152 177.042C26.5876 177.982 27.4168 178.352 28.09 178.46C29.42 178.674 29.535 179.284 29.3585 180.458C29.0834 182.291 31.1482 184.763 32.8353 184.644C34.6743 184.516 36.5298 184.504 38.3441 184.533C39.1241 184.533 39.3457 184.314 39.1159 183.49C38.6602 181.842 38.9968 181.587 40.6593 181.986C42.4778 182.423 44.2224 183.173 46.1722 183.041C46.3675 183.014 46.5663 183.027 46.7567 183.078C46.9471 183.13 47.1252 183.219 47.2806 183.341C47.436 183.462 47.5655 183.614 47.6614 183.787C47.7573 183.96 47.8176 184.151 47.8388 184.347C48.0646 186.461 49.2797 187.821 50.9914 188.937C52.539 189.955 52.5102 190.004 53.4544 188.443C54.3985 186.881 55.043 185.044 57.3007 184.928C57.4964 184.896 57.6791 184.809 57.8285 184.678C57.9779 184.547 58.0879 184.377 58.1463 184.187C59.0494 181.546 61.0444 180.965 63.5402 181.204C64.0451 181.253 64.5746 180.985 65.1 180.919C65.1951 180.907 65.2886 180.885 65.3792 180.853C65.2449 180.743 65.1352 180.606 65.0574 180.451C64.9796 180.295 64.9354 180.125 64.9276 179.951Z" fill="white"/>
<path d="M122.819 196.704C121.666 195.113 121.456 193.519 122.175 191.826C122.39 191.275 122.547 190.703 122.643 190.12C122.955 188.517 122.774 187.899 121.793 187.236C120.753 186.489 119.797 185.629 118.944 184.673C118.099 183.694 117.117 182.842 116.03 182.143L115.496 181.83C114.675 181.335 114.018 180.94 113.251 180.981C112.759 180.989 112.271 180.898 111.815 180.714C111.359 180.53 110.944 180.257 110.595 179.91C109.815 179.238 108.977 178.583 108.173 177.949C107.565 177.471 106.941 176.98 106.33 176.478C106.235 176.399 106.1 176.387 105.673 176.383H104.442C103.058 176.362 101.634 176.346 100.226 176.309C98.2677 176.259 97.6068 174.858 97.1676 173.931C96.4374 172.252 95.887 170.499 95.5257 168.703C95.1152 166.898 94.7047 165.196 93.8837 163.647C93.3049 162.527 93.272 161.361 93.2392 160.351C93.2392 160.19 93.2392 160.03 93.2392 159.869C93.1941 158.925 93.1284 157.957 93.0627 157.022C92.9396 155.279 92.8123 153.474 92.8369 151.666C92.8375 150.984 92.9772 150.309 93.2474 149.684C92.1842 150.005 91.1457 150.294 90.1113 150.557L89.7911 150.644C88.9622 150.876 88.1188 151.052 87.2665 151.171C85.9899 151.328 85.3044 150.846 84.9555 150.413C84.7204 150.105 84.5654 149.743 84.5045 149.359C84.4436 148.976 84.4787 148.583 84.6066 148.217L84.4054 148.077C83.3217 147.29 82.1025 147.158 80.6905 147.002C80.1322 146.94 79.5575 146.878 78.9705 146.767C78.4566 146.699 77.9838 146.449 77.6387 146.061C77.2935 145.673 77.0989 145.173 77.0904 144.653C77.0699 144.311 77.0124 143.953 76.955 143.574C76.9098 143.293 76.8606 143.005 76.8277 142.704C76.8075 142.491 76.7704 142.281 76.7169 142.074C76.5954 142.129 76.4775 142.193 76.3639 142.263C74.1349 143.615 71.7869 143.821 69.5127 144.018L69.0202 144.064C68.3769 144.158 67.7205 144.087 67.1119 143.858C66.5033 143.629 65.9623 143.249 65.5392 142.754C64.4924 144.113 63.4169 145.461 62.4071 146.721L62.3538 146.791C62.3593 146.81 62.3676 146.828 62.3784 146.845L62.5631 147.216C63.1902 148.329 63.6429 149.532 63.9054 150.784C64.0478 150.879 64.1974 150.963 64.3529 151.035L64.6074 151.163C65.1287 151.435 65.6623 151.678 66.2288 151.938C67.2728 152.381 68.2779 152.912 69.2336 153.524C69.9109 153.981 70.7565 154.55 70.9413 155.584C71.0726 156.305 70.851 157.063 70.2598 157.891C69.4634 159.093 68.9058 160.437 68.6179 161.851C68.4537 162.564 68.5809 162.761 69.0899 163.087C72.9691 165.407 73.4986 167.351 71.3477 171.406C71.0316 171.904 70.831 172.467 70.7606 173.054C70.6758 174.036 70.3967 174.991 69.9397 175.864C69.7279 176.298 69.5548 176.75 69.4224 177.215V177.265C69.3484 177.523 69.1925 177.75 68.9785 177.911C68.7644 178.072 68.5038 178.159 68.2361 178.159C68.4373 178.653 68.7533 179.115 68.7205 179.675C68.761 179.751 68.794 179.831 68.819 179.914C69.3075 181.974 68.7328 183.948 68.4537 185.95C68.4865 186.267 68.5235 186.585 68.5604 186.922C69.3814 186.749 69.6482 186.131 69.7919 185.542C70.2229 183.791 72.066 183.07 73.0758 183.07C74.8533 183.037 75.5388 182.777 75.3335 180.989C75.3335 180.919 75.4444 180.833 75.5018 180.759C75.6209 180.025 76.2161 179.935 76.7785 179.799C79.0422 179.199 81.3962 179.02 83.724 179.271C86.893 179.564 90.062 179.461 93.2351 179.514C94.015 179.514 94.6718 179.778 94.4091 180.676C94.2572 181.199 94.8483 181.405 94.6472 181.834C96.1455 182.547 97.4673 183.68 99.2981 183.597C100.903 183.523 101.728 184.166 102.032 185.517C102.299 186.675 101.519 188.814 100.509 189.16C98.9204 189.732 98.4196 190.915 98.358 192.423C98.3211 193.247 97.9804 193.84 97.1471 193.989C95.5257 194.285 95.2301 196.098 93.9329 196.77C93.6538 196.914 93.8549 197.285 94.0109 197.549C94.8032 198.879 96.6668 199.456 98.1651 199.024C100.131 198.455 101.782 197.202 103.744 196.638C106.149 195.95 106.905 196.226 108.05 198.397C108.304 198.875 108.522 199.403 109.092 199.534C111.383 200.066 113.518 201.183 115.968 201.108C117.61 201.055 119.523 200.766 120.82 201.483C122.536 202.439 122.61 201.187 122.704 200.47C122.852 199.337 123.197 198.661 123.858 198.48L123.833 198.434C123.538 197.834 123.199 197.255 122.819 196.704Z" fill="white"/>
<path d="M304.59 221.64C305.209 220.634 305.094 220.02 304.454 219.209C303.814 218.397 303.021 217.536 302.89 216.324C302.656 214.186 302.069 213.556 300.017 213.284C298.912 213.135 298.477 212.6 298.325 211.52C298.083 209.806 298.871 208.393 299.528 206.988C300.439 205.002 300.374 204.45 298.559 203.465C297.866 203.09 297.238 202.678 296.938 201.904C296.995 201.739 296.909 201.677 296.766 201.656C296.433 198.336 296.433 198.315 293.239 198.018C291.187 197.829 289.093 197.709 287.02 197.573C286.199 197.52 285.424 197.318 285.054 196.556C284.685 195.793 284.065 195.732 283.412 195.542C280.35 194.718 277.255 195.212 274.176 195.369C271.097 195.526 267.937 195.707 264.813 195.781C265.685 196.241 266.457 196.871 267.083 197.634C267.709 198.398 268.176 199.279 268.458 200.227C268.988 202.163 268.639 204.281 267.44 206.349C267.259 206.662 267.083 206.98 266.906 207.293C265.675 209.468 264.443 211.714 261.82 213.123C261.41 213.35 261.27 214.462 261.172 215.278C261.147 215.488 261.122 215.69 261.094 215.888C260.926 217.306 261.066 218.744 261.504 220.103L261.525 220.16C262.03 221.874 262.723 224.219 260.564 226.312C260.289 226.58 260.47 227.548 260.585 228.224L260.622 228.434C261.143 231.384 261.816 234.478 263.815 237.008C263.998 237.252 264.124 237.533 264.185 237.832C264.185 237.861 264.185 237.89 264.185 237.914C264.239 238.083 264.257 238.261 264.238 238.438C264.43 238.409 264.625 238.409 264.817 238.438C266.373 238.199 267.892 238.607 269.427 238.73C271.68 238.907 273.942 239.023 276.196 239.167C277.645 239.146 279.094 239.109 280.547 239.109C283.749 239.109 286.803 237.927 290.029 238.013C293.724 238.108 297.344 237.498 300.985 237.074C301.988 236.935 302.952 236.591 303.818 236.064C304.594 235.615 304.787 235.195 304.282 234.478C302.574 232.055 301.93 229.32 301.93 226.398C301.995 226.126 302.057 225.85 302.118 225.574C302.923 224.235 303.781 222.946 304.59 221.64Z" fill="white"/>
<path d="M257.428 226.176C257.428 225.702 257.465 224.907 258.023 224.359C258.91 223.481 258.729 222.595 258.306 220.968C258.265 220.82 258.228 220.667 258.187 220.515C257.55 217.878 257.645 215.116 258.462 212.53C258.595 212 258.837 211.505 259.173 211.075C259.509 210.646 259.931 210.292 260.412 210.037C262.301 209.028 263.286 207.153 264.316 205.146L264.583 204.635L263.943 204.45C262.55 204.097 261.202 203.587 259.924 202.93C259.821 202.872 259.726 202.801 259.641 202.719C259.091 202.176 258.29 201.974 257.379 201.78C256.841 201.665 256.299 201.57 255.737 201.471C254.582 201.301 253.442 201.045 252.326 200.705L251.796 200.54C250.482 200.128 248.721 199.609 247.978 197.656C247.519 197.656 247.067 197.59 246.628 197.544C245.622 197.441 244.674 197.343 243.898 197.635C241.234 198.64 238.71 198.187 236.596 197.61C236.392 197.544 236.181 197.506 235.967 197.495C235.903 197.643 235.855 197.798 235.824 197.956C235.335 200.07 233.833 201.096 231.596 200.841C230.553 200.721 229.478 200.643 228.439 200.565L227.249 200.478C227.051 200.807 226.81 201.106 226.53 201.368C226.173 201.702 225.812 202.023 225.451 202.349C224.075 203.585 222.778 204.742 222.007 206.321C221.706 206.964 221.221 207.503 220.615 207.87C220.008 208.237 219.307 208.415 218.6 208.381C218.507 208.46 218.419 208.546 218.337 208.636C218.104 208.921 217.815 209.155 217.488 209.323C217.161 209.491 216.803 209.59 216.436 209.613C216.246 209.611 216.058 209.586 215.874 209.538C215.679 209.489 215.498 209.393 215.349 209.258C215.199 209.123 215.085 208.953 215.016 208.764C214.573 209.003 214.154 209.283 213.706 209.518C212.742 210.02 212.225 210.845 212.578 211.763C213.304 213.655 212.036 214.647 211.112 215.884C210.763 216.341 210.291 216.806 210.193 217.326C210.041 218.17 208.436 218.615 209.413 219.649C210.08 220.305 210.947 220.716 211.876 220.815C214.392 221.112 215.882 222.464 216.469 224.907C216.641 225.624 217.06 226.221 217.857 226.143C219.971 225.941 221.925 226.938 224.014 226.88C225.048 226.847 225.488 227.346 225.245 228.426C224.72 230.811 225.356 233.341 224.182 235.677C223.673 236.691 224.215 237.507 225.541 237.618C226.177 237.671 226.978 237.618 227.417 238.219C229.346 240.889 232.532 241.775 235.023 243.642C236.082 244.441 236.92 243.926 237.162 242.591C237.716 239.579 238.845 238.392 241.788 238.339C247.535 238.24 253.282 237.56 259.029 238.17C259.628 238.232 260.232 238.31 260.831 238.339C258.393 235.076 257.293 231.091 257.428 226.176Z" fill="white"/>
<path d="M109.023 174.277C109.678 173.861 110.455 173.679 111.227 173.762C111.371 173.762 111.502 173.762 111.597 173.762C111.754 173.754 111.911 173.731 112.064 173.692C112.043 173.533 112.006 173.375 111.954 173.223C111.779 172.651 111.547 172.099 111.26 171.575C110.721 170.666 110.372 169.657 110.235 168.608C110.097 167.56 110.174 166.494 110.459 165.477C111.133 162.963 112.327 160.578 114.33 157.739L114.351 157.71C115.119 156.618 115.845 155.592 116.034 154.414L116.054 154.282C116.407 152.057 116.74 149.956 116.465 147.821C116.404 147.1 116.461 146.374 116.633 145.671C116.658 145.543 116.683 145.415 116.703 145.288C116.982 143.701 118.013 142.852 119.613 142.906C121.727 143.013 123.846 142.961 125.951 142.749C126.772 142.646 127.331 142.115 128.152 141.258L128.324 141.081C127.429 140.125 126.809 139.598 125.722 139.672C125.24 139.731 124.751 139.69 124.286 139.552C123.82 139.414 123.388 139.181 123.016 138.868C122.236 138.155 121.847 137.084 121.785 135.486C121.752 134.466 121.715 133.449 121.674 132.432C121.654 131.806 121.629 131.176 121.604 130.549C121.617 130.357 121.594 130.164 121.535 129.981C119.921 128.209 119.301 125.881 119.741 123.253C120.124 120.755 120.077 118.21 119.601 115.729C119.44 114.706 119.343 113.674 119.31 112.639C119.289 112.227 119.269 111.815 119.236 111.403C119.186 111.046 119.218 110.683 119.33 110.341C119.441 109.999 119.63 109.687 119.88 109.429C120.116 109.207 120.4 109.043 120.71 108.948C121.02 108.854 121.347 108.832 121.666 108.885C123.066 109.042 124.457 108.778 125.935 108.502C126.259 108.436 126.588 108.374 126.916 108.317C127.079 108.292 127.244 108.281 127.409 108.284C127.433 108.197 127.462 108.111 127.487 108.028C127.549 107.856 127.594 107.678 127.622 107.497L127.565 107.439C127.097 107.016 126.667 106.553 126.28 106.055L123.686 102.894C120.229 98.6919 116.654 94.345 113.181 90.0311C113.157 89.9981 113.131 89.9664 113.103 89.9364L112.988 90.0105C110.867 91.373 108.904 92.9677 107.134 94.7653C104.626 97.4352 102.377 96.0714 100.879 95.1443C101.035 96.1703 100.521 97.1015 100.259 97.5876C100.107 97.8596 99.9673 98.1604 99.8154 98.4817C99.2037 99.7961 98.4361 101.436 96.4083 102.054C95.9848 102.176 95.5413 102.211 95.104 102.157C94.6668 102.103 94.2448 101.962 93.8632 101.741C93.7155 101.671 93.5759 101.605 93.4527 101.56C93.3434 101.519 93.2376 101.47 93.1367 101.411C93.0628 101.873 93.0135 102.351 92.9643 102.849C92.9396 103.109 92.915 103.368 92.8822 103.628C92.6851 105.375 92.1022 107.826 89.3683 108.914C89.1138 109.017 88.9578 109.219 88.65 109.866C88.4899 110.191 88.3421 110.533 88.1861 110.896C87.5499 112.355 86.8274 114.007 85.2798 115.082C83.9166 115.955 82.764 117.122 81.9056 118.498C81.7787 118.693 81.6701 118.9 81.5813 119.116C82.4967 120.809 82.5993 122.585 82.5706 124.254L82.6198 124.287L82.6691 124.316C84.2249 125.288 86.3389 126.606 86.3143 129.408C88.8881 130.232 89.0071 132.585 89.0892 134.179V134.501C89.1027 134.852 89.1342 135.203 89.1836 135.551C89.5207 135.606 89.8606 135.642 90.2016 135.659C91.1827 135.729 91.8436 136.091 92.1843 136.746C92.525 137.401 92.4306 138.143 91.9216 138.971C91.4501 139.811 90.7595 140.505 89.9241 140.98C89.0887 141.455 88.1401 141.692 87.1804 141.666C86.9119 141.637 86.6404 141.672 86.3882 141.769C86.3007 142.055 86.266 142.356 86.2855 142.655V142.82C86.2855 143.194 86.2855 143.569 86.2855 143.948C86.2855 144.439 86.2855 144.941 86.3184 145.209C86.5688 145.275 87.0532 145.341 87.5252 145.411C87.7334 145.445 87.9313 145.525 88.1041 145.646C88.2768 145.768 88.42 145.927 88.5227 146.112L88.5474 146.149C88.6969 146.348 88.7828 146.588 88.7938 146.837C88.8048 147.087 88.7403 147.334 88.6089 147.545L89.6105 147.273C90.6766 147.019 91.7222 146.684 92.7385 146.272C93.6771 145.883 94.6363 145.546 95.6119 145.263L96.6956 144.921L96.7654 144.896C97.1759 144.752 98.51 144.311 99.3064 145.539C99.7948 146.289 99.6881 147.088 98.9985 147.912C98.9618 147.954 98.9275 147.998 98.8959 148.044C98.4208 148.714 97.8316 149.294 97.1554 149.758C96.8295 149.985 96.5646 150.289 96.3841 150.643C96.2036 150.998 96.1132 151.391 96.1209 151.789C96.0812 153.44 96.1429 155.091 96.3057 156.734C96.3837 157.747 96.4658 158.794 96.5027 159.836C96.5027 160.001 96.5027 160.174 96.5027 160.347C96.5027 161.064 96.5232 161.74 96.8024 162.16C97.8573 163.746 98.1775 165.456 98.4854 167.104C98.6431 167.856 98.8446 168.597 99.0888 169.325C99.3354 170.056 99.541 170.8 99.7045 171.554C100.029 173.153 100.665 173.202 102.623 173.202H103.062H103.859C105.575 173.177 107.393 173.297 109.023 174.277Z" fill="white"/>
<path d="M153.155 158.949C152.692 158.681 152.267 158.356 151.889 157.982C151.073 157.186 150.689 156.427 150.746 155.595C150.804 154.764 151.293 154.06 152.236 153.391C152.392 153.28 152.543 153.188 152.677 153.109C152.823 153.031 152.96 152.937 153.086 152.83C153.407 151.596 153.482 150.313 153.306 149.051C153.08 149.187 152.827 149.274 152.563 149.306C152.3 149.337 152.032 149.313 151.779 149.234C151.479 149.123 151.21 148.942 150.997 148.707C150.783 148.472 150.632 148.19 150.555 147.886C150.501 147.727 150.428 147.552 150.35 147.369C150.098 146.846 149.942 146.285 149.889 145.71C149.681 141.569 151.355 137.929 153.192 134.607C153.906 133.322 155.18 132.932 156.592 133.569C157.593 134.018 158.785 134.09 160.046 134.169H160.095C160.217 134.191 160.343 134.187 160.463 134.158C160.583 134.128 160.696 134.074 160.793 133.999C160.89 133.923 160.97 133.828 161.026 133.721C161.082 133.613 161.114 133.495 161.12 133.374C161.83 130.239 164.186 128.393 166.158 127.14C166.913 126.659 167.121 126.146 166.937 125.243C166.776 124.669 166.53 124.121 166.207 123.616C166.141 123.504 166.076 123.389 166.015 123.274C165.872 123.015 165.713 122.76 165.549 122.478C164.959 121.618 164.525 120.665 164.267 119.662C164.182 119.264 163.961 118.221 164.774 117.593C164.967 117.449 165.191 117.349 165.429 117.3C165.667 117.251 165.913 117.255 166.149 117.311C165.71 116.689 165.475 115.953 165.476 115.198C165.476 115.055 165.476 114.916 165.439 114.776C165.362 114.425 165.396 114.059 165.538 113.727C165.679 113.396 165.921 113.113 166.231 112.919C165.157 110.981 165.464 108.941 165.823 107.441L165.884 107.194C166.06 106.668 166.163 106.121 166.19 105.567C166.044 105.018 165.823 104.491 165.533 104C163.496 104.681 161.402 105.187 159.275 105.512C158.352 105.679 157.401 105.854 156.482 106.053C155.616 106.267 154.764 106.532 153.931 106.848C152.675 107.331 151.369 107.68 150.036 107.891C148.256 108.113 146.444 108.376 144.688 108.626C142.647 108.921 140.557 109.223 138.479 109.474L137.474 109.601C135.511 109.864 133.335 110.154 131.179 109.506C131.111 109.858 130.938 110.183 130.681 110.44C130.48 110.635 130.238 110.784 129.971 110.878C129.705 110.972 129.421 111.009 129.138 110.985C128.216 110.982 127.295 111.07 126.391 111.248C125.322 111.455 124.234 111.553 123.145 111.542C123.153 112.774 123.289 114.002 123.553 115.206C123.982 116.893 124.39 119.128 123.762 121.487C123.491 122.402 123.441 123.365 123.616 124.301C123.79 125.237 124.183 126.122 124.766 126.886C125.262 127.635 125.514 128.513 125.488 129.404C125.537 130.967 125.623 132.558 125.75 134.269C125.753 134.445 125.793 134.618 125.868 134.778C128.452 134.559 130.069 135.944 131.306 137.328C133.131 139.373 132.302 140.876 131.285 141.775C129.763 143.12 127.869 144.791 125.031 144.481C124.474 144.436 123.915 144.429 123.357 144.461C123.047 144.461 122.741 144.484 122.431 144.484C122.022 144.484 120.724 144.484 120.426 144.64C120.279 144.946 120.357 146.231 120.381 146.629C120.379 146.664 120.379 146.7 120.381 146.736C120.397 146.852 120.406 146.969 120.41 147.086C120.496 150.177 120.267 153.761 117.96 156.908C116.066 159.494 114.866 161.785 114.176 164.116C113.943 164.912 113.939 165.385 114.176 165.886C114.764 167.191 115.282 168.373 115.736 169.594C115.922 170.118 115.992 170.675 115.941 171.228C115.891 171.78 115.72 172.316 115.442 172.8C115.389 172.892 115.331 172.975 115.274 173.055L115.421 173.079C118.055 173.552 120.719 173.846 123.394 173.958C127.885 174.01 132.376 174.006 136.789 173.958H136.985C138.393 173.958 140.153 174.173 141.63 175.549C141.941 175.799 142.33 175.939 142.733 175.947C144.896 176.11 147.072 175.897 149.158 175.318C149.227 175.3 149.296 175.279 149.362 175.255C149.366 175.207 149.366 175.159 149.362 175.111C149.256 173.823 149.24 172.136 150.056 170.509C151.244 168.122 151.689 165.906 151.44 163.71C151.359 163.034 151.347 162.179 151.967 161.57C152.242 161.334 152.569 161.162 152.923 161.068C153.277 160.974 153.648 160.959 154.008 161.025C154 159.86 153.857 159.339 153.155 158.949Z" fill="white"/>
</g>
<defs>
<clipPath id="clip0_6_291">
<rect width="305" height="244" fill="white"/>
</clipPath>
</defs>
</svg>
